<svg width="200" height="400" viewBox="0 0 200 400" xmlns="http://www.w3.org/2000/svg">
  <g stroke="#C0A062" stroke-width="2" fill="none" opacity="0.8">
    <path d="M 0,0 C 150,100 150,300 0,400" />
    <path d="M 10,0 C 160,100 160,300 10,400" />
    <path d="M 20,0 C 170,100 170,300 20,400" />
    <path d="M 30,0 C 180,100 180,300 30,400" />
    <path d="M 40,0 C 190,100 190,300 40,400" />
    <path d="M 50,0 C 200,100 200,300 50,400" />
    
    <path d="M 200,0 C 50,100 50,300 200,400" />
    <path d="M 190,0 C 40,100 40,300 190,400" />
    <path d="M 180,0 C 30,100 30,300 180,400" />
    <path d="M 170,0 C 20,100 20,300 170,400" />
    <path d="M 160,0 C 10,100 10,300 160,400" />
    <path d="M 150,0 C 0,100 0,300 150,400" />
  </g>
</svg>
